solid OpenSCAD_Model
  facet normal -0.995185 0.0980137 0
    outer loop
      vertex -12.5 -7 -0.38
      vertex -12.5 -7 0.38
      vertex -12.4951 -6.95 -0.38
    endloop
  endfacet
  facet normal -0.995185 0.0980137 0
    outer loop
      vertex -12.4951 -6.95 -0.38
      vertex -12.5 -7 0.38
      vertex -12.4951 -6.95 0.38
    endloop
  endfacet
  facet normal -0.995185 -0.0980137 -0
    outer loop
      vertex -12.5 -7 -0.38
      vertex -12.4904 -7.09754 -0.38
      vertex -12.5 -7 0.38
    endloop
  endfacet
  facet normal -0.995185 -0.0980137 0
    outer loop
      vertex -12.5 -7 0.38
      vertex -12.4904 -7.09754 -0.38
      vertex -12.4904 -7.09754 0.38
    endloop
  endfacet
  facet normal -0 0 -1
    outer loop
      vertex -12.5 -7 -0.38
      vertex -12.4951 -6.95 -0.38
      vertex -12.4904 -7.09754 -0.38
    endloop
  endfacet
  facet normal 0 0 -1
    outer loop
      vertex -12.5 6.95 -0.38
      vertex -12.4951 -6.95 -0.38
      vertex -12.5 -6.95 -0.38
    endloop
  endfacet
  facet normal 0 0 -1
    outer loop
      vertex -12.4904 -7.09754 -0.38
      vertex -12.4951 -6.95 -0.38
      vertex -12.5 6.95 -0.38
    endloop
  endfacet
  facet normal 0 0 -1
    outer loop
      vertex -12.4904 -7.09754 -0.38
      vertex -12.5 6.95 -0.38
      vertex -12.4951 6.95 -0.38
    endloop
  endfacet
  facet normal 0 -0 -1
    outer loop
      vertex -12.4951 6.95 -0.38
      vertex -12.5 7 -0.38
      vertex -12.4904 7.09754 -0.38
    endloop
  endfacet
  facet normal -0 0 -1
    outer loop
      vertex -12.4951 6.95 -0.38
      vertex -12.4904 7.09754 -0.38
      vertex -12.4904 -7.09754 -0.38
    endloop
  endfacet
  facet normal 0 -0 -1
    outer loop
      vertex -12.4904 -7.09754 -0.38
      vertex -12.4904 7.09754 -0.38
      vertex -12.4619 7.19134 -0.38
    endloop
  endfacet
  facet normal 0 0 -1
    outer loop
      vertex -12.4904 -7.09754 -0.38
      vertex -12.4619 7.19134 -0.38
      vertex -12.4157 7.27778 -0.38
    endloop
  endfacet
  facet normal 0 0 -1
    outer loop
      vertex -12.4904 -7.09754 -0.38
      vertex -12.4157 7.27778 -0.38
      vertex -12.3536 7.35355 -0.38
    endloop
  endfacet
  facet normal 0 0 -1
    outer loop
      vertex -12.4904 -7.09754 -0.38
      vertex -12.3536 7.35355 -0.38
      vertex -12.2778 7.41573 -0.38
    endloop
  endfacet
  facet normal 0 0 -1
    outer loop
      vertex -12.4904 -7.09754 -0.38
      vertex -12.2778 7.41573 -0.38
      vertex -12.1913 7.46194 -0.38
    endloop
  endfacet
  facet normal 0 0 -1
    outer loop
      vertex -12.4904 -7.09754 -0.38
      vertex -12.1913 7.46194 -0.38
      vertex -12.0975 7.49039 -0.38
    endloop
  endfacet
  facet normal 0 0 -1
    outer loop
      vertex -12.4904 -7.09754 -0.38
      vertex -12.0975 7.49039 -0.38
      vertex -12 7.5 -0.38
    endloop
  endfacet
  facet normal 0 0 -1
    outer loop
      vertex -12.4904 -7.09754 -0.38
      vertex -12 7.5 -0.38
      vertex -11.95 7.49508 -0.38
    endloop
  endfacet
  facet normal 0 -0 -1
    outer loop
      vertex -11.95 7.49508 -0.38
      vertex -11.95 7.5 -0.38
      vertex 9.5 7.5 -0.38
    endloop
  endfacet
  facet normal 0 0 -1
    outer loop
      vertex 4.1 2.9 -0.38
      vertex 9.5 7.5 -0.38
      vertex 12.5 4.5 -0.38
    endloop
  endfacet
  facet normal -0 0 -1
    outer loop
      vertex 12.4951 -6.95 -0.38
      vertex 12.5 4.5 -0.38
      vertex 12.5 -6.95 -0.38
    endloop
  endfacet
  facet normal -0 0 -1
    outer loop
      vertex 4.06629 -6.41111 -0.38
      vertex 12.5 4.5 -0.38
      vertex 12.4951 -6.95 -0.38
    endloop
  endfacet
  facet normal 0 0 -1
    outer loop
      vertex 11.95 -7.5 -0.38
      vertex -12.4904 -7.09754 -0.38
      vertex 11.95 -7.49508 -0.38
    endloop
  endfacet
  facet normal -0 0 -1
    outer loop
      vertex -12.4904 -7.09754 -0.38
      vertex 12.5 -7 -0.38
      vertex 12.4904 -7.09754 -0.38
    endloop
  endfacet
  facet normal 0 0 -1
    outer loop
      vertex -12.4904 -7.09754 -0.38
      vertex 12.4904 -7.09754 -0.38
      vertex 12.4619 -7.19134 -0.38
    endloop
  endfacet
  facet normal 0 0 -1
    outer loop
      vertex -12.4904 -7.09754 -0.38
      vertex 12.4619 -7.19134 -0.38
      vertex 12.4157 -7.27778 -0.38
    endloop
  endfacet
  facet normal 0 0 -1
    outer loop
      vertex -12.4904 -7.09754 -0.38
      vertex 12.4157 -7.27778 -0.38
      vertex 12.3536 -7.35355 -0.38
    endloop
  endfacet
  facet normal 0 0 -1
    outer loop
      vertex -12.4904 -7.09754 -0.38
      vertex 12.3536 -7.35355 -0.38
      vertex 12.2778 -7.41573 -0.38
    endloop
  endfacet
  facet normal 0 0 -1
    outer loop
      vertex -12.4904 -7.09754 -0.38
      vertex 12.2778 -7.41573 -0.38
      vertex 12.1913 -7.46194 -0.38
    endloop
  endfacet
  facet normal 0 0 -1
    outer loop
      vertex -12.4904 -7.09754 -0.38
      vertex 12.1913 -7.46194 -0.38
      vertex 12.0975 -7.49039 -0.38
    endloop
  endfacet
  facet normal -0 0 -1
    outer loop
      vertex 11.95 -7.49508 -0.38
      vertex 12.0975 -7.49039 -0.38
      vertex 12 -7.5 -0.38
    endloop
  endfacet
  facet normal 0 0 -1
    outer loop
      vertex -12.4904 -7.09754 -0.38
      vertex 12.0975 -7.49039 -0.38
      vertex 11.95 -7.49508 -0.38
    endloop
  endfacet
  facet normal 0 -0 -1
    outer loop
      vertex -12 -7.5 -0.38
      vertex -12.4904 -7.09754 -0.38
      vertex -11.95 -7.49508 -0.38
    endloop
  endfacet
  facet normal 0 0 -1
    outer loop
      vertex -11.95 -7.49508 -0.38
      vertex 11.95 -7.5 -0.38
      vertex -11.95 -7.5 -0.38
    endloop
  endfacet
  facet normal 0 0 -1
    outer loop
      vertex -12.4904 -7.09754 -0.38
      vertex 11.95 -7.5 -0.38
      vertex -11.95 -7.49508 -0.38
    endloop
  endfacet
  facet normal -0 0 -1
    outer loop
      vertex -10.85 5.7 -0.38
      vertex 9.5 7.5 -0.38
      vertex 1.3 5.7 -0.38
    endloop
  endfacet
  facet normal 0 0 -1
    outer loop
      vertex -11.1 -6.25 -0.38
      vertex -12.4904 -7.09754 -0.38
      vertex -11.1 5.45 -0.38
    endloop
  endfacet
  facet normal 0 0 -1
    outer loop
      vertex -12.4904 -7.09754 -0.38
      vertex -12 -7.5 -0.38
      vertex -12.0975 -7.49039 -0.38
    endloop
  endfacet
  facet normal 0 0 -1
    outer loop
      vertex -12.4904 -7.09754 -0.38
      vertex -12.0975 -7.49039 -0.38
      vertex -12.1913 -7.46194 -0.38
    endloop
  endfacet
  facet normal 0 0 -1
    outer loop
      vertex -12.4904 -7.09754 -0.38
      vertex -12.1913 -7.46194 -0.38
      vertex -12.2778 -7.41573 -0.38
    endloop
  endfacet
  facet normal 0 0 -1
    outer loop
      vertex -12.4904 -7.09754 -0.38
      vertex -12.2778 -7.41573 -0.38
      vertex -12.3536 -7.35355 -0.38
    endloop
  endfacet
  facet normal 0 0 -1
    outer loop
      vertex -12.4904 -7.09754 -0.38
      vertex -12.3536 -7.35355 -0.38
      vertex -12.4157 -7.27778 -0.38
    endloop
  endfacet
  facet normal 0 0 -1
    outer loop
      vertex -12.4904 -7.09754 -0.38
      vertex -12.4157 -7.27778 -0.38
      vertex -12.4619 -7.19134 -0.38
    endloop
  endfacet
  facet normal 0 0 -1
    outer loop
      vertex -11.95 7.49508 -0.38
      vertex -11.1 5.45 -0.38
      vertex -12.4904 -7.09754 -0.38
    endloop
  endfacet
  facet normal 0 0 -1
    outer loop
      vertex -11.0414 -6.44142 -0.38
      vertex -12.4904 -7.09754 -0.38
      vertex -11.0663 -6.41111 -0.38
    endloop
  endfacet
  facet normal 0 0 -1
    outer loop
      vertex -12.4904 -7.09754 -0.38
      vertex -11.1 -6.25 -0.38
      vertex -11.0928 -6.25 -0.38
    endloop
  endfacet
  facet normal 0 0 -1
    outer loop
      vertex -12.4904 -7.09754 -0.38
      vertex -11.0928 -6.25 -0.38
      vertex -11.0962 -6.26098 -0.38
    endloop
  endfacet
  facet normal 0 0 -1
    outer loop
      vertex -12.4904 -7.09754 -0.38
      vertex -11.0962 -6.26098 -0.38
      vertex -11.1 -6.3 -0.38
    endloop
  endfacet
  facet normal 0 0 -1
    outer loop
      vertex -12.4904 -7.09754 -0.38
      vertex -11.1 -6.3 -0.38
      vertex -11.0962 -6.33902 -0.38
    endloop
  endfacet
  facet normal 0 0 -1
    outer loop
      vertex -12.4904 -7.09754 -0.38
      vertex -11.0962 -6.33902 -0.38
      vertex -11.0848 -6.37654 -0.38
    endloop
  endfacet
  facet normal 0 0 -1
    outer loop
      vertex -12.4904 -7.09754 -0.38
      vertex -11.0848 -6.37654 -0.38
      vertex -11.0663 -6.41111 -0.38
    endloop
  endfacet
  facet normal 0 0 -1
    outer loop
      vertex -10.861 -6.49616 -0.38
      vertex -10.85 -6.5 -0.38
      vertex -10.9 -6.5 -0.38
    endloop
  endfacet
  facet normal 0 0 -1
    outer loop
      vertex 3.85 -6.5 -0.38
      vertex 12.4951 -6.95 -0.38
      vertex -10.85 -6.5 -0.38
    endloop
  endfacet
  facet normal 0 0 -1
    outer loop
      vertex -12.4904 -7.09754 -0.38
      vertex -11.0414 -6.44142 -0.38
      vertex -11.0111 -6.46629 -0.38
    endloop
  endfacet
  facet normal 0 0 -1
    outer loop
      vertex -12.4904 -7.09754 -0.38
      vertex -11.0111 -6.46629 -0.38
      vertex -10.9765 -6.48478 -0.38
    endloop
  endfacet
  facet normal 0 0 -1
    outer loop
      vertex -12.4904 -7.09754 -0.38
      vertex -10.9765 -6.48478 -0.38
      vertex -10.939 -6.49616 -0.38
    endloop
  endfacet
  facet normal 0 0 -1
    outer loop
      vertex -12.4904 -7.09754 -0.38
      vertex -10.939 -6.49616 -0.38
      vertex -10.9 -6.5 -0.38
    endloop
  endfacet
  facet normal 0 0 -1
    outer loop
      vertex -12.4904 -7.09754 -0.38
      vertex -10.9 -6.5 -0.38
      vertex 12.4951 -6.95 -0.38
    endloop
  endfacet
  facet normal 0 0 -1
    outer loop
      vertex -10.85 -6.5 -0.38
      vertex -10.861 -6.49616 -0.38
      vertex -10.85 -6.49283 -0.38
    endloop
  endfacet
  facet normal 0 0 -1
    outer loop
      vertex -10.9 -6.5 -0.38
      vertex -10.85 -6.5 -0.38
      vertex 12.4951 -6.95 -0.38
    endloop
  endfacet
  facet normal 0 0 -1
    outer loop
      vertex 3.86098 -6.49616 -0.38
      vertex 3.85 -6.5 -0.38
      vertex 3.85 -6.49283 -0.38
    endloop
  endfacet
  facet normal 0 0 -1
    outer loop
      vertex 3.93902 -6.49616 -0.38
      vertex 12.4951 -6.95 -0.38
      vertex 3.9 -6.5 -0.38
    endloop
  endfacet
  facet normal -0 0 -1
    outer loop
      vertex 3.85 -6.5 -0.38
      vertex 3.86098 -6.49616 -0.38
      vertex 3.9 -6.5 -0.38
    endloop
  endfacet
  facet normal 0 0 -1
    outer loop
      vertex 3.85 -6.5 -0.38
      vertex 3.9 -6.5 -0.38
      vertex 12.4951 -6.95 -0.38
    endloop
  endfacet
  facet normal -0 0 -1
    outer loop
      vertex 4.1 2.9 -0.38
      vertex 12.5 4.5 -0.38
      vertex 4.1 -6.25 -0.38
    endloop
  endfacet
  facet normal -0 0 -1
    outer loop
      vertex 4.08478 -6.37654 -0.38
      vertex 12.5 4.5 -0.38
      vertex 4.06629 -6.41111 -0.38
    endloop
  endfacet
  facet normal -0 0 -1
    outer loop
      vertex 4.09616 -6.26098 -0.38
      vertex 12.5 4.5 -0.38
      vertex 4.1 -6.3 -0.38
    endloop
  endfacet
  facet normal -0 0 -1
    outer loop
      vertex 3.93902 -6.49616 -0.38
      vertex 3.97654 -6.48478 -0.38
      vertex 12.4951 -6.95 -0.38
    endloop
  endfacet
  facet normal -0 0 -1
    outer loop
      vertex 4.1 -6.3 -0.38
      vertex 12.5 4.5 -0.38
      vertex 4.09616 -6.33902 -0.38
    endloop
  endfacet
  facet normal -0 0 -1
    outer loop
      vertex 3.97654 -6.48478 -0.38
      vertex 4.01111 -6.46629 -0.38
      vertex 12.4951 -6.95 -0.38
    endloop
  endfacet
  facet normal -0 0 -1
    outer loop
      vertex 4.09616 -6.33902 -0.38
      vertex 12.5 4.5 -0.38
      vertex 4.08478 -6.37654 -0.38
    endloop
  endfacet
  facet normal -0 0 -1
    outer loop
      vertex 4.01111 -6.46629 -0.38
      vertex 4.04142 -6.44142 -0.38
      vertex 12.4951 -6.95 -0.38
    endloop
  endfacet
  facet normal -0 0 -1
    outer loop
      vertex 4.04142 -6.44142 -0.38
      vertex 4.06629 -6.41111 -0.38
      vertex 12.4951 -6.95 -0.38
    endloop
  endfacet
  facet normal -0 0 -1
    outer loop
      vertex 4.1 -6.25 -0.38
      vertex 12.5 4.5 -0.38
      vertex 4.09616 -6.26098 -0.38
    endloop
  endfacet
  facet normal 0 0 -1
    outer loop
      vertex 4.09283 -6.25 -0.38
      vertex 4.1 -6.25 -0.38
      vertex 4.09616 -6.26098 -0.38
    endloop
  endfacet
  facet normal -0 0 -1
    outer loop
      vertex 1.3 5.7 -0.38
      vertex 9.5 7.5 -0.38
      vertex 4.1 2.9 -0.38
    endloop
  endfacet
  facet normal -0 0 -1
    outer loop
      vertex -11.95 7.49508 -0.38
      vertex 9.5 7.5 -0.38
      vertex -10.85 5.7 -0.38
    endloop
  endfacet
  facet normal 0 0 -1
    outer loop
      vertex -11.0962 5.46098 -0.38
      vertex -11.1 5.45 -0.38
      vertex -11.1 5.5 -0.38
    endloop
  endfacet
  facet normal -0 0 -1
    outer loop
      vertex -10.861 5.69616 -0.38
      vertex -10.85 5.7 -0.38
      vertex -10.85 5.69283 -0.38
    endloop
  endfacet
  facet normal 0 0 -1
    outer loop
      vertex -11.95 7.49508 -0.38
      vertex -10.85 5.7 -0.38
      vertex -10.861 5.69616 -0.38
    endloop
  endfacet
  facet normal 0 0 -1
    outer loop
      vertex -11.95 7.49508 -0.38
      vertex -10.861 5.69616 -0.38
      vertex -10.9 5.7 -0.38
    endloop
  endfacet
  facet normal 0 0 -1
    outer loop
      vertex -11.95 7.49508 -0.38
      vertex -10.9 5.7 -0.38
      vertex -10.939 5.69616 -0.38
    endloop
  endfacet
  facet normal 0 0 -1
    outer loop
      vertex -11.95 7.49508 -0.38
      vertex -10.939 5.69616 -0.38
      vertex -10.9765 5.68478 -0.38
    endloop
  endfacet
  facet normal 0 0 -1
    outer loop
      vertex -11.95 7.49508 -0.38
      vertex -10.9765 5.68478 -0.38
      vertex -11.0111 5.66629 -0.38
    endloop
  endfacet
  facet normal 0 0 -1
    outer loop
      vertex -11.95 7.49508 -0.38
      vertex -11.0111 5.66629 -0.38
      vertex -11.0414 5.64142 -0.38
    endloop
  endfacet
  facet normal 0 0 -1
    outer loop
      vertex -11.95 7.49508 -0.38
      vertex -11.0414 5.64142 -0.38
      vertex -11.0663 5.61111 -0.38
    endloop
  endfacet
  facet normal 0 0 -1
    outer loop
      vertex -11.95 7.49508 -0.38
      vertex -11.0663 5.61111 -0.38
      vertex -11.0848 5.57654 -0.38
    endloop
  endfacet
  facet normal 0 0 -1
    outer loop
      vertex -11.95 7.49508 -0.38
      vertex -11.0848 5.57654 -0.38
      vertex -11.0962 5.53902 -0.38
    endloop
  endfacet
  facet normal 0 0 -1
    outer loop
      vertex -11.95 7.49508 -0.38
      vertex -11.0962 5.53902 -0.38
      vertex -11.1 5.5 -0.38
    endloop
  endfacet
  facet normal 0 0 -1
    outer loop
      vertex -11.95 7.49508 -0.38
      vertex -11.1 5.5 -0.38
      vertex -11.1 5.45 -0.38
    endloop
  endfacet
  facet normal 0 0 -1
    outer loop
      vertex -11.0928 5.45 -0.38
      vertex -11.1 5.45 -0.38
      vertex -11.0962 5.46098 -0.38
    endloop
  endfacet
  facet normal 0 0 -1
    outer loop
      vertex 12.5 -7 -0.38
      vertex -12.4904 -7.09754 -0.38
      vertex 12.4951 -6.95 -0.38
    endloop
  endfacet
  facet normal 0 -1 0
    outer loop
      vertex -12.4951 -6.95 -0.38
      vertex -12.4951 -6.95 0.38
      vertex -12.5 -6.95 0.38
    endloop
  endfacet
  facet normal -0 -1 -0
    outer loop
      vertex -12.5 -6.95 -0.38
      vertex -12.4951 -6.95 -0.38
      vertex -12.5 -6.95 0.38
    endloop
  endfacet
  facet normal 0 -0 1
    outer loop
      vertex -12.4951 -6.95 0.38
      vertex -12.5 -7 0.38
      vertex -12.4904 -7.09754 0.38
    endloop
  endfacet
  facet normal 0 0 1
    outer loop
      vertex -12.4157 -7.27778 0.38
      vertex -12.4951 -6.95 0.38
      vertex -12.4619 -7.19134 0.38
    endloop
  endfacet
  facet normal 0 0 1
    outer loop
      vertex -12.4619 -7.19134 0.38
      vertex -12.4951 -6.95 0.38
      vertex -12.4904 -7.09754 0.38
    endloop
  endfacet
  facet normal 0 0 1
    outer loop
      vertex -12.3536 -7.35355 0.38
      vertex -12.4951 -6.95 0.38
      vertex -12.4157 -7.27778 0.38
    endloop
  endfacet
  facet normal 0 0 1
    outer loop
      vertex -12.2778 -7.41573 0.38
      vertex -12.4951 -6.95 0.38
      vertex -12.3536 -7.35355 0.38
    endloop
  endfacet
  facet normal 0 0 1
    outer loop
      vertex -12.1913 -7.46194 0.38
      vertex -12.4951 -6.95 0.38
      vertex -12.2778 -7.41573 0.38
    endloop
  endfacet
  facet normal 0 0 1
    outer loop
      vertex -12.0975 -7.49039 0.38
      vertex -12.4951 -6.95 0.38
      vertex -12.1913 -7.46194 0.38
    endloop
  endfacet
  facet normal 0 0 1
    outer loop
      vertex -12 -7.5 0.38
      vertex -12.4951 -6.95 0.38
      vertex -12.0975 -7.49039 0.38
    endloop
  endfacet
  facet normal -0 0 1
    outer loop
      vertex -11.95 -7.49508 0.38
      vertex -12.4951 -6.95 0.38
      vertex -12 -7.5 0.38
    endloop
  endfacet
  facet normal 0 0 1
    outer loop
      vertex 11.95 -7.5 0.38
      vertex -12.4951 -6.95 0.38
      vertex -11.95 -7.49508 0.38
    endloop
  endfacet
  facet normal -0 0 1
    outer loop
      vertex 11.95 -7.5 0.38
      vertex -11.95 -7.49508 0.38
      vertex -11.95 -7.5 0.38
    endloop
  endfacet
  facet normal -0 0 1
    outer loop
      vertex 11.95 -7.49508 0.38
      vertex -12.4951 -6.95 0.38
      vertex 11.95 -7.5 0.38
    endloop
  endfacet
  facet normal -0 0 1
    outer loop
      vertex 12.0975 -7.49039 0.38
      vertex -12.4951 -6.95 0.38
      vertex 11.95 -7.49508 0.38
    endloop
  endfacet
  facet normal 0 0 1
    outer loop
      vertex 12.0975 -7.49039 0.38
      vertex 11.95 -7.49508 0.38
      vertex 12 -7.5 0.38
    endloop
  endfacet
  facet normal -0 0 1
    outer loop
      vertex 12.1913 -7.46194 0.38
      vertex -12.4951 -6.95 0.38
      vertex 12.0975 -7.49039 0.38
    endloop
  endfacet
  facet normal -0 0 1
    outer loop
      vertex 12.2778 -7.41573 0.38
      vertex -12.4951 -6.95 0.38
      vertex 12.1913 -7.46194 0.38
    endloop
  endfacet
  facet normal -0 0 1
    outer loop
      vertex 12.3536 -7.35355 0.38
      vertex -12.4951 -6.95 0.38
      vertex 12.2778 -7.41573 0.38
    endloop
  endfacet
  facet normal -0 0 1
    outer loop
      vertex 12.4157 -7.27778 0.38
      vertex -12.4951 -6.95 0.38
      vertex 12.3536 -7.35355 0.38
    endloop
  endfacet
  facet normal -0 0 1
    outer loop
      vertex 12.4619 -7.19134 0.38
      vertex -12.4951 -6.95 0.38
      vertex 12.4157 -7.27778 0.38
    endloop
  endfacet
  facet normal -0 0 1
    outer loop
      vertex 12.4904 -7.09754 0.38
      vertex -12.4951 -6.95 0.38
      vertex 12.4619 -7.19134 0.38
    endloop
  endfacet
  facet normal -0 0 1
    outer loop
      vertex 12.5 -7 0.38
      vertex -12.4951 -6.95 0.38
      vertex 12.4904 -7.09754 0.38
    endloop
  endfacet
  facet normal 0 -0 1
    outer loop
      vertex 12.4951 -6.95 0.38
      vertex -12.4951 -6.95 0.38
      vertex 12.5 -7 0.38
    endloop
  endfacet
  facet normal 0 -0 1
    outer loop
      vertex 3.9 -6.5 0.38
      vertex -12.4951 -6.95 0.38
      vertex 12.4951 -6.95 0.38
    endloop
  endfacet
  facet normal 0 0 1
    outer loop
      vertex 12.5 4.5 0.38
      vertex 12.4951 -6.95 0.38
      vertex 12.5 -6.95 0.38
    endloop
  endfacet
  facet normal 0 0 1
    outer loop
      vertex -10.9 5.7 0.38
      vertex -10.861 5.69616 0.38
      vertex -10.85 5.7 0.38
    endloop
  endfacet
  facet normal 0 0 1
    outer loop
      vertex -11.95 7.49508 0.38
      vertex -12.5 -6.95 0.38
      vertex -12.4951 -6.95 0.38
    endloop
  endfacet
  facet normal 0 -0 1
    outer loop
      vertex -11.95 7.5 0.38
      vertex -11.95 7.49508 0.38
      vertex 9.5 7.5 0.38
    endloop
  endfacet
  facet normal -0 0 1
    outer loop
      vertex -11.95 7.49508 0.38
      vertex -12 7.5 0.38
      vertex -12.5 -6.95 0.38
    endloop
  endfacet
  facet normal -0 0 1
    outer loop
      vertex -11.1 -6.25 0.38
      vertex -11.1 5.45 0.38
      vertex -12.4951 -6.95 0.38
    endloop
  endfacet
  facet normal 0 0 1
    outer loop
      vertex -10.85 5.7 0.38
      vertex 1.3 5.7 0.38
      vertex 9.5 7.5 0.38
    endloop
  endfacet
  facet normal 0 0 1
    outer loop
      vertex -12.5 7 0.38
      vertex -12.4951 6.95 0.38
      vertex -12.4904 7.09754 0.38
    endloop
  endfacet
  facet normal 0 -0 1
    outer loop
      vertex -11.95 7.49508 0.38
      vertex -12.4951 -6.95 0.38
      vertex -11.1 5.45 0.38
    endloop
  endfacet
  facet normal 0 0 1
    outer loop
      vertex -10.9 5.7 0.38
      vertex -10.85 5.7 0.38
      vertex 9.5 7.5 0.38
    endloop
  endfacet
  facet normal 0 0 1
    outer loop
      vertex 1.3 5.7 0.38
      vertex 4.1 2.9 0.38
      vertex 9.5 7.5 0.38
    endloop
  endfacet
  facet normal 0 0 1
    outer loop
      vertex -11.95 7.49508 0.38
      vertex -11.1 5.45 0.38
      vertex -11.0962 5.46098 0.38
    endloop
  endfacet
  facet normal 0 0 1
    outer loop
      vertex -11.95 7.49508 0.38
      vertex -11.0962 5.46098 0.38
      vertex -11.1 5.5 0.38
    endloop
  endfacet
  facet normal 0 0 1
    outer loop
      vertex -11.95 7.49508 0.38
      vertex -11.1 5.5 0.38
      vertex -11.0962 5.53902 0.38
    endloop
  endfacet
  facet normal 0 0 1
    outer loop
      vertex -11.95 7.49508 0.38
      vertex -11.0962 5.53902 0.38
      vertex -11.0848 5.57654 0.38
    endloop
  endfacet
  facet normal 0 0 1
    outer loop
      vertex -11.95 7.49508 0.38
      vertex -11.0848 5.57654 0.38
      vertex -11.0663 5.61111 0.38
    endloop
  endfacet
  facet normal 0 0 1
    outer loop
      vertex -11.95 7.49508 0.38
      vertex -11.0663 5.61111 0.38
      vertex -11.0414 5.64142 0.38
    endloop
  endfacet
  facet normal 0 0 1
    outer loop
      vertex -11.95 7.49508 0.38
      vertex -11.0414 5.64142 0.38
      vertex -11.0111 5.66629 0.38
    endloop
  endfacet
  facet normal 0 0 1
    outer loop
      vertex -10.85 5.69283 0.38
      vertex -10.85 5.7 0.38
      vertex -10.861 5.69616 0.38
    endloop
  endfacet
  facet normal 0 0 1
    outer loop
      vertex -11.95 7.49508 0.38
      vertex -11.0111 5.66629 0.38
      vertex -10.9765 5.68478 0.38
    endloop
  endfacet
  facet normal 0 0 1
    outer loop
      vertex -11.95 7.49508 0.38
      vertex -10.9765 5.68478 0.38
      vertex -10.939 5.69616 0.38
    endloop
  endfacet
  facet normal 0 0 1
    outer loop
      vertex -11.95 7.49508 0.38
      vertex -10.9 5.7 0.38
      vertex 9.5 7.5 0.38
    endloop
  endfacet
  facet normal 0 0 1
    outer loop
      vertex -11.95 7.49508 0.38
      vertex -10.939 5.69616 0.38
      vertex -10.9 5.7 0.38
    endloop
  endfacet
  facet normal -0 0 1
    outer loop
      vertex -11.0962 -6.33902 0.38
      vertex -11.1 -6.3 0.38
      vertex -12.4951 -6.95 0.38
    endloop
  endfacet
  facet normal -0 0 1
    outer loop
      vertex -11.0928 5.45 0.38
      vertex -11.0962 5.46098 0.38
      vertex -11.1 5.45 0.38
    endloop
  endfacet
  facet normal 0 -0 1
    outer loop
      vertex 9.5 7.5 0.38
      vertex 4.1 2.9 0.38
      vertex 12.5 4.5 0.38
    endloop
  endfacet
  facet normal 0 0 1
    outer loop
      vertex 12.5 4.5 0.38
      vertex 4.1 -6.25 0.38
      vertex 12.4951 -6.95 0.38
    endloop
  endfacet
  facet normal 0 0 1
    outer loop
      vertex -10.861 -6.49616 0.38
      vertex -10.9 -6.5 0.38
      vertex -12.4951 -6.95 0.38
    endloop
  endfacet
  facet normal 0 -0 1
    outer loop
      vertex 4.1 -6.25 0.38
      vertex 4.09616 -6.26098 0.38
      vertex 12.4951 -6.95 0.38
    endloop
  endfacet
  facet normal 0 0 1
    outer loop
      vertex 4.09616 -6.26098 0.38
      vertex 4.1 -6.3 0.38
      vertex 12.4951 -6.95 0.38
    endloop
  endfacet
  facet normal 0 -0 1
    outer loop
      vertex 4.1 -6.3 0.38
      vertex 4.09616 -6.33902 0.38
      vertex 12.4951 -6.95 0.38
    endloop
  endfacet
  facet normal 0 -0 1
    outer loop
      vertex 4.09616 -6.33902 0.38
      vertex 4.08478 -6.37654 0.38
      vertex 12.4951 -6.95 0.38
    endloop
  endfacet
  facet normal 0 -0 1
    outer loop
      vertex 4.08478 -6.37654 0.38
      vertex 4.06629 -6.41111 0.38
      vertex 12.4951 -6.95 0.38
    endloop
  endfacet
  facet normal 0 -0 1
    outer loop
      vertex 4.06629 -6.41111 0.38
      vertex 4.04142 -6.44142 0.38
      vertex 12.4951 -6.95 0.38
    endloop
  endfacet
  facet normal 0 -0 1
    outer loop
      vertex 4.04142 -6.44142 0.38
      vertex 4.01111 -6.46629 0.38
      vertex 12.4951 -6.95 0.38
    endloop
  endfacet
  facet normal 0 -0 1
    outer loop
      vertex 4.01111 -6.46629 0.38
      vertex 3.97654 -6.48478 0.38
      vertex 12.4951 -6.95 0.38
    endloop
  endfacet
  facet normal 0 -0 1
    outer loop
      vertex 3.97654 -6.48478 0.38
      vertex 3.93902 -6.49616 0.38
      vertex 12.4951 -6.95 0.38
    endloop
  endfacet
  facet normal 0 -0 1
    outer loop
      vertex 3.93902 -6.49616 0.38
      vertex 3.9 -6.5 0.38
      vertex 12.4951 -6.95 0.38
    endloop
  endfacet
  facet normal 0 -0 1
    outer loop
      vertex 3.85 -6.5 0.38
      vertex -12.4951 -6.95 0.38
      vertex 3.9 -6.5 0.38
    endloop
  endfacet
  facet normal 0 -0 1
    outer loop
      vertex 3.85 -6.49283 0.38
      vertex 3.85 -6.5 0.38
      vertex 3.86098 -6.49616 0.38
    endloop
  endfacet
  facet normal 0 0 1
    outer loop
      vertex 4.09283 -6.25 0.38
      vertex 4.09616 -6.26098 0.38
      vertex 4.1 -6.25 0.38
    endloop
  endfacet
  facet normal 0 -0 1
    outer loop
      vertex -10.861 -6.49616 0.38
      vertex -12.4951 -6.95 0.38
      vertex -10.85 -6.5 0.38
    endloop
  endfacet
  facet normal -0 0 1
    outer loop
      vertex 3.9 -6.5 0.38
      vertex 3.86098 -6.49616 0.38
      vertex 3.85 -6.5 0.38
    endloop
  endfacet
  facet normal 0 0 1
    outer loop
      vertex -10.85 -6.49283 0.38
      vertex -10.861 -6.49616 0.38
      vertex -10.85 -6.5 0.38
    endloop
  endfacet
  facet normal 0 -0 1
    outer loop
      vertex -10.939 -6.49616 0.38
      vertex -12.4951 -6.95 0.38
      vertex -10.9 -6.5 0.38
    endloop
  endfacet
  facet normal 0 -0 1
    outer loop
      vertex -10.9765 -6.48478 0.38
      vertex -12.4951 -6.95 0.38
      vertex -10.939 -6.49616 0.38
    endloop
  endfacet
  facet normal 0 -0 1
    outer loop
      vertex -11.0111 -6.46629 0.38
      vertex -12.4951 -6.95 0.38
      vertex -10.9765 -6.48478 0.38
    endloop
  endfacet
  facet normal 0 -0 1
    outer loop
      vertex -11.0414 -6.44142 0.38
      vertex -12.4951 -6.95 0.38
      vertex -11.0111 -6.46629 0.38
    endloop
  endfacet
  facet normal 0 -0 1
    outer loop
      vertex -11.0663 -6.41111 0.38
      vertex -12.4951 -6.95 0.38
      vertex -11.0414 -6.44142 0.38
    endloop
  endfacet
  facet normal 0 -0 1
    outer loop
      vertex -11.0848 -6.37654 0.38
      vertex -12.4951 -6.95 0.38
      vertex -11.0663 -6.41111 0.38
    endloop
  endfacet
  facet normal 0 -0 1
    outer loop
      vertex -11.0962 -6.33902 0.38
      vertex -12.4951 -6.95 0.38
      vertex -11.0848 -6.37654 0.38
    endloop
  endfacet
  facet normal 0 0 1
    outer loop
      vertex 3.85 -6.5 0.38
      vertex -10.85 -6.5 0.38
      vertex -12.4951 -6.95 0.38
    endloop
  endfacet
  facet normal 0 -0 1
    outer loop
      vertex -11.1 -6.25 0.38
      vertex -12.4951 -6.95 0.38
      vertex -11.1 -6.3 0.38
    endloop
  endfacet
  facet normal 0 0 1
    outer loop
      vertex -11.1 -6.25 0.38
      vertex -11.1 -6.3 0.38
      vertex -11.0962 -6.26098 0.38
    endloop
  endfacet
  facet normal 0 0 1
    outer loop
      vertex -11.1 -6.25 0.38
      vertex -11.0962 -6.26098 0.38
      vertex -11.0928 -6.25 0.38
    endloop
  endfacet
  facet normal 0 0 1
    outer loop
      vertex -12.5 -6.95 0.38
      vertex -12.4904 7.09754 0.38
      vertex -12.4951 6.95 0.38
    endloop
  endfacet
  facet normal 0 0 1
    outer loop
      vertex -12.5 -6.95 0.38
      vertex -12.4619 7.19134 0.38
      vertex -12.4904 7.09754 0.38
    endloop
  endfacet
  facet normal 0 0 1
    outer loop
      vertex -12.5 -6.95 0.38
      vertex -12.4157 7.27778 0.38
      vertex -12.4619 7.19134 0.38
    endloop
  endfacet
  facet normal 0 0 1
    outer loop
      vertex -12.5 -6.95 0.38
      vertex -12.3536 7.35355 0.38
      vertex -12.4157 7.27778 0.38
    endloop
  endfacet
  facet normal 0 0 1
    outer loop
      vertex -12.5 -6.95 0.38
      vertex -12.2778 7.41573 0.38
      vertex -12.3536 7.35355 0.38
    endloop
  endfacet
  facet normal 0 0 1
    outer loop
      vertex -12.5 -6.95 0.38
      vertex -12.1913 7.46194 0.38
      vertex -12.2778 7.41573 0.38
    endloop
  endfacet
  facet normal 0 0 1
    outer loop
      vertex -12.5 -6.95 0.38
      vertex -12.0975 7.49039 0.38
      vertex -12.1913 7.46194 0.38
    endloop
  endfacet
  facet normal 0 0 1
    outer loop
      vertex -12.5 -6.95 0.38
      vertex -12 7.5 0.38
      vertex -12.0975 7.49039 0.38
    endloop
  endfacet
  facet normal 0 0 1
    outer loop
      vertex -12.4951 6.95 0.38
      vertex -12.5 6.95 0.38
      vertex -12.5 -6.95 0.38
    endloop
  endfacet
  facet normal 0 -0 1
    outer loop
      vertex 4.1 2.9 0.38
      vertex 4.1 -6.25 0.38
      vertex 12.5 4.5 0.38
    endloop
  endfacet
  facet normal -0.95694 -0.290285 -0
    outer loop
      vertex -12.4904 -7.09754 -0.38
      vertex -12.4619 -7.19134 -0.38
      vertex -12.4904 -7.09754 0.38
    endloop
  endfacet
  facet normal -0.95694 -0.290285 0
    outer loop
      vertex -12.4904 -7.09754 0.38
      vertex -12.4619 -7.19134 -0.38
      vertex -12.4619 -7.19134 0.38
    endloop
  endfacet
  facet normal -0.88192 -0.471399 -0
    outer loop
      vertex -12.4619 -7.19134 -0.38
      vertex -12.4157 -7.27778 -0.38
      vertex -12.4619 -7.19134 0.38
    endloop
  endfacet
  facet normal -0.88192 -0.471399 0
    outer loop
      vertex -12.4619 -7.19134 0.38
      vertex -12.4157 -7.27778 -0.38
      vertex -12.4157 -7.27778 0.38
    endloop
  endfacet
  facet normal -0.773006 -0.634398 -0
    outer loop
      vertex -12.4157 -7.27778 -0.38
      vertex -12.3536 -7.35355 -0.38
      vertex -12.4157 -7.27778 0.38
    endloop
  endfacet
  facet normal -0.773006 -0.634398 0
    outer loop
      vertex -12.4157 -7.27778 0.38
      vertex -12.3536 -7.35355 -0.38
      vertex -12.3536 -7.35355 0.38
    endloop
  endfacet
  facet normal -0.634398 -0.773006 0
    outer loop
      vertex -12.3536 -7.35355 0.38
      vertex -12.3536 -7.35355 -0.38
      vertex -12.2778 -7.41573 -0.38
    endloop
  endfacet
  facet normal -0.634398 -0.773006 0
    outer loop
      vertex -12.2778 -7.41573 0.38
      vertex -12.3536 -7.35355 0.38
      vertex -12.2778 -7.41573 -0.38
    endloop
  endfacet
  facet normal -0.471399 -0.88192 0
    outer loop
      vertex -12.2778 -7.41573 0.38
      vertex -12.2778 -7.41573 -0.38
      vertex -12.1913 -7.46194 -0.38
    endloop
  endfacet
  facet normal -0.471399 -0.88192 0
    outer loop
      vertex -12.1913 -7.46194 0.38
      vertex -12.2778 -7.41573 0.38
      vertex -12.1913 -7.46194 -0.38
    endloop
  endfacet
  facet normal -0.290285 -0.95694 0
    outer loop
      vertex -12.1913 -7.46194 0.38
      vertex -12.1913 -7.46194 -0.38
      vertex -12.0975 -7.49039 -0.38
    endloop
  endfacet
  facet normal -0.290285 -0.95694 0
    outer loop
      vertex -12.0975 -7.49039 0.38
      vertex -12.1913 -7.46194 0.38
      vertex -12.0975 -7.49039 -0.38
    endloop
  endfacet
  facet normal -0.0980137 -0.995185 0
    outer loop
      vertex -12.0975 -7.49039 0.38
      vertex -12.0975 -7.49039 -0.38
      vertex -12 -7.5 -0.38
    endloop
  endfacet
  facet normal -0.0980137 -0.995185 0
    outer loop
      vertex -12 -7.5 0.38
      vertex -12.0975 -7.49039 0.38
      vertex -12 -7.5 -0.38
    endloop
  endfacet
  facet normal 0.0980137 -0.995185 0
    outer loop
      vertex -12 -7.5 0.38
      vertex -12 -7.5 -0.38
      vertex -11.95 -7.49508 -0.38
    endloop
  endfacet
  facet normal 0.0980137 -0.995185 0
    outer loop
      vertex -11.95 -7.49508 0.38
      vertex -12 -7.5 0.38
      vertex -11.95 -7.49508 -0.38
    endloop
  endfacet
  facet normal -1 0 0
    outer loop
      vertex -11.95 -7.49508 0.38
      vertex -11.95 -7.49508 -0.38
      vertex -11.95 -7.5 0.38
    endloop
  endfacet
  facet normal -1 0 0
    outer loop
      vertex -11.95 -7.5 0.38
      vertex -11.95 -7.49508 -0.38
      vertex -11.95 -7.5 -0.38
    endloop
  endfacet
  facet normal 0 -1 0
    outer loop
      vertex -11.95 -7.5 0.38
      vertex -11.95 -7.5 -0.38
      vertex 11.95 -7.5 -0.38
    endloop
  endfacet
  facet normal 0 -1 0
    outer loop
      vertex 11.95 -7.5 0.38
      vertex -11.95 -7.5 0.38
      vertex 11.95 -7.5 -0.38
    endloop
  endfacet
  facet normal 1 0 0
    outer loop
      vertex 11.95 -7.49508 -0.38
      vertex 11.95 -7.49508 0.38
      vertex 11.95 -7.5 0.38
    endloop
  endfacet
  facet normal 1 0 0
    outer loop
      vertex 11.95 -7.5 -0.38
      vertex 11.95 -7.49508 -0.38
      vertex 11.95 -7.5 0.38
    endloop
  endfacet
  facet normal -0.0980137 -0.995185 0
    outer loop
      vertex 11.95 -7.49508 0.38
      vertex 11.95 -7.49508 -0.38
      vertex 12 -7.5 -0.38
    endloop
  endfacet
  facet normal -0.0980137 -0.995185 0
    outer loop
      vertex 12 -7.5 0.38
      vertex 11.95 -7.49508 0.38
      vertex 12 -7.5 -0.38
    endloop
  endfacet
  facet normal 0.0980137 -0.995185 0
    outer loop
      vertex 12 -7.5 0.38
      vertex 12 -7.5 -0.38
      vertex 12.0975 -7.49039 -0.38
    endloop
  endfacet
  facet normal 0.0980137 -0.995185 0
    outer loop
      vertex 12.0975 -7.49039 0.38
      vertex 12 -7.5 0.38
      vertex 12.0975 -7.49039 -0.38
    endloop
  endfacet
  facet normal 0.290285 -0.95694 0
    outer loop
      vertex 12.0975 -7.49039 0.38
      vertex 12.0975 -7.49039 -0.38
      vertex 12.1913 -7.46194 -0.38
    endloop
  endfacet
  facet normal 0.290285 -0.95694 0
    outer loop
      vertex 12.1913 -7.46194 0.38
      vertex 12.0975 -7.49039 0.38
      vertex 12.1913 -7.46194 -0.38
    endloop
  endfacet
  facet normal 0.471399 -0.88192 0
    outer loop
      vertex 12.1913 -7.46194 0.38
      vertex 12.1913 -7.46194 -0.38
      vertex 12.2778 -7.41573 -0.38
    endloop
  endfacet
  facet normal 0.471399 -0.88192 0
    outer loop
      vertex 12.2778 -7.41573 0.38
      vertex 12.1913 -7.46194 0.38
      vertex 12.2778 -7.41573 -0.38
    endloop
  endfacet
  facet normal 0.634398 -0.773006 0
    outer loop
      vertex 12.2778 -7.41573 0.38
      vertex 12.2778 -7.41573 -0.38
      vertex 12.3536 -7.35355 -0.38
    endloop
  endfacet
  facet normal 0.634398 -0.773006 0
    outer loop
      vertex 12.3536 -7.35355 0.38
      vertex 12.2778 -7.41573 0.38
      vertex 12.3536 -7.35355 -0.38
    endloop
  endfacet
  facet normal 0.773006 -0.634398 0
    outer loop
      vertex 12.3536 -7.35355 0.38
      vertex 12.3536 -7.35355 -0.38
      vertex 12.4157 -7.27778 -0.38
    endloop
  endfacet
  facet normal 0.773006 -0.634398 0
    outer loop
      vertex 12.4157 -7.27778 0.38
      vertex 12.3536 -7.35355 0.38
      vertex 12.4157 -7.27778 -0.38
    endloop
  endfacet
  facet normal 0.88192 -0.471399 0
    outer loop
      vertex 12.4157 -7.27778 0.38
      vertex 12.4157 -7.27778 -0.38
      vertex 12.4619 -7.19134 -0.38
    endloop
  endfacet
  facet normal 0.88192 -0.471399 0
    outer loop
      vertex 12.4619 -7.19134 0.38
      vertex 12.4157 -7.27778 0.38
      vertex 12.4619 -7.19134 -0.38
    endloop
  endfacet
  facet normal 0.95694 -0.290285 0
    outer loop
      vertex 12.4619 -7.19134 0.38
      vertex 12.4619 -7.19134 -0.38
      vertex 12.4904 -7.09754 -0.38
    endloop
  endfacet
  facet normal 0.95694 -0.290285 0
    outer loop
      vertex 12.4904 -7.09754 0.38
      vertex 12.4619 -7.19134 0.38
      vertex 12.4904 -7.09754 -0.38
    endloop
  endfacet
  facet normal 0.995185 -0.0980137 0
    outer loop
      vertex 12.4904 -7.09754 0.38
      vertex 12.4904 -7.09754 -0.38
      vertex 12.5 -7 -0.38
    endloop
  endfacet
  facet normal 0.995185 -0.0980137 0
    outer loop
      vertex 12.5 -7 0.38
      vertex 12.4904 -7.09754 0.38
      vertex 12.5 -7 -0.38
    endloop
  endfacet
  facet normal 0.995185 0.0980137 0
    outer loop
      vertex 12.5 -7 -0.38
      vertex 12.4951 -6.95 -0.38
      vertex 12.4951 -6.95 0.38
    endloop
  endfacet
  facet normal 0.995185 0.0980137 -0
    outer loop
      vertex 12.5 -7 0.38
      vertex 12.5 -7 -0.38
      vertex 12.4951 -6.95 0.38
    endloop
  endfacet
  facet normal 0 -1 0
    outer loop
      vertex 12.5 -6.95 -0.38
      vertex 12.5 -6.95 0.38
      vertex 12.4951 -6.95 0.38
    endloop
  endfacet
  facet normal -0 -1 -0
    outer loop
      vertex 12.4951 -6.95 -0.38
      vertex 12.5 -6.95 -0.38
      vertex 12.4951 -6.95 0.38
    endloop
  endfacet
  facet normal 1 0 -0
    outer loop
      vertex 12.5 -6.95 0.38
      vertex 12.5 -6.95 -0.38
      vertex 12.5 4.5 -0.38
    endloop
  endfacet
  facet normal 1 0 0
    outer loop
      vertex 12.5 4.5 0.38
      vertex 12.5 -6.95 0.38
      vertex 12.5 4.5 -0.38
    endloop
  endfacet
  facet normal 0.707107 0.707107 -0
    outer loop
      vertex 12.5 4.5 0.38
      vertex 12.5 4.5 -0.38
      vertex 9.5 7.5 0.38
    endloop
  endfacet
  facet normal 0.707107 0.707107 -0
    outer loop
      vertex 9.5 7.5 0.38
      vertex 12.5 4.5 -0.38
      vertex 9.5 7.5 -0.38
    endloop
  endfacet
  facet normal 0 1 0
    outer loop
      vertex -11.95 7.5 -0.38
      vertex -11.95 7.5 0.38
      vertex 9.5 7.5 -0.38
    endloop
  endfacet
  facet normal 0 1 0
    outer loop
      vertex 9.5 7.5 -0.38
      vertex -11.95 7.5 0.38
      vertex 9.5 7.5 0.38
    endloop
  endfacet
  facet normal -1 0 0
    outer loop
      vertex -11.95 7.49508 0.38
      vertex -11.95 7.5 0.38
      vertex -11.95 7.49508 -0.38
    endloop
  endfacet
  facet normal -1 -0 0
    outer loop
      vertex -11.95 7.49508 -0.38
      vertex -11.95 7.5 0.38
      vertex -11.95 7.5 -0.38
    endloop
  endfacet
  facet normal 0.0980137 0.995185 0
    outer loop
      vertex -12 7.5 -0.38
      vertex -12 7.5 0.38
      vertex -11.95 7.49508 -0.38
    endloop
  endfacet
  facet normal 0.0980137 0.995185 0
    outer loop
      vertex -11.95 7.49508 -0.38
      vertex -12 7.5 0.38
      vertex -11.95 7.49508 0.38
    endloop
  endfacet
  facet normal -0.0980137 0.995185 0
    outer loop
      vertex -12.0975 7.49039 -0.38
      vertex -12.0975 7.49039 0.38
      vertex -12 7.5 -0.38
    endloop
  endfacet
  facet normal -0.0980137 0.995185 0
    outer loop
      vertex -12 7.5 -0.38
      vertex -12.0975 7.49039 0.38
      vertex -12 7.5 0.38
    endloop
  endfacet
  facet normal -0.290285 0.95694 0
    outer loop
      vertex -12.1913 7.46194 -0.38
      vertex -12.1913 7.46194 0.38
      vertex -12.0975 7.49039 -0.38
    endloop
  endfacet
  facet normal -0.290285 0.95694 0
    outer loop
      vertex -12.0975 7.49039 -0.38
      vertex -12.1913 7.46194 0.38
      vertex -12.0975 7.49039 0.38
    endloop
  endfacet
  facet normal -0.471399 0.88192 0
    outer loop
      vertex -12.2778 7.41573 -0.38
      vertex -12.2778 7.41573 0.38
      vertex -12.1913 7.46194 -0.38
    endloop
  endfacet
  facet normal -0.471399 0.88192 0
    outer loop
      vertex -12.1913 7.46194 -0.38
      vertex -12.2778 7.41573 0.38
      vertex -12.1913 7.46194 0.38
    endloop
  endfacet
  facet normal -0.634398 0.773006 0
    outer loop
      vertex -12.3536 7.35355 -0.38
      vertex -12.3536 7.35355 0.38
      vertex -12.2778 7.41573 -0.38
    endloop
  endfacet
  facet normal -0.634398 0.773006 0
    outer loop
      vertex -12.2778 7.41573 -0.38
      vertex -12.3536 7.35355 0.38
      vertex -12.2778 7.41573 0.38
    endloop
  endfacet
  facet normal -0.773006 0.634398 0
    outer loop
      vertex -12.4157 7.27778 -0.38
      vertex -12.4157 7.27778 0.38
      vertex -12.3536 7.35355 -0.38
    endloop
  endfacet
  facet normal -0.773006 0.634398 0
    outer loop
      vertex -12.3536 7.35355 -0.38
      vertex -12.4157 7.27778 0.38
      vertex -12.3536 7.35355 0.38
    endloop
  endfacet
  facet normal -0.88192 0.471399 0
    outer loop
      vertex -12.4619 7.19134 -0.38
      vertex -12.4619 7.19134 0.38
      vertex -12.4157 7.27778 -0.38
    endloop
  endfacet
  facet normal -0.88192 0.471399 0
    outer loop
      vertex -12.4157 7.27778 -0.38
      vertex -12.4619 7.19134 0.38
      vertex -12.4157 7.27778 0.38
    endloop
  endfacet
  facet normal -0.95694 0.290285 0
    outer loop
      vertex -12.4904 7.09754 -0.38
      vertex -12.4904 7.09754 0.38
      vertex -12.4619 7.19134 -0.38
    endloop
  endfacet
  facet normal -0.95694 0.290285 0
    outer loop
      vertex -12.4619 7.19134 -0.38
      vertex -12.4904 7.09754 0.38
      vertex -12.4619 7.19134 0.38
    endloop
  endfacet
  facet normal -0.995185 0.0980137 0
    outer loop
      vertex -12.5 7 -0.38
      vertex -12.5 7 0.38
      vertex -12.4904 7.09754 -0.38
    endloop
  endfacet
  facet normal -0.995185 0.0980137 0
    outer loop
      vertex -12.4904 7.09754 -0.38
      vertex -12.5 7 0.38
      vertex -12.4904 7.09754 0.38
    endloop
  endfacet
  facet normal -0.995185 -0.0980137 -0
    outer loop
      vertex -12.5 7 -0.38
      vertex -12.4951 6.95 -0.38
      vertex -12.5 7 0.38
    endloop
  endfacet
  facet normal -0.995185 -0.0980137 0
    outer loop
      vertex -12.5 7 0.38
      vertex -12.4951 6.95 -0.38
      vertex -12.4951 6.95 0.38
    endloop
  endfacet
  facet normal 0 1 0
    outer loop
      vertex -12.4951 6.95 0.38
      vertex -12.4951 6.95 -0.38
      vertex -12.5 6.95 0.38
    endloop
  endfacet
  facet normal 0 1 -0
    outer loop
      vertex -12.5 6.95 0.38
      vertex -12.4951 6.95 -0.38
      vertex -12.5 6.95 -0.38
    endloop
  endfacet
  facet normal -1 -0 -0
    outer loop
      vertex -12.5 -6.95 -0.38
      vertex -12.5 -6.95 0.38
      vertex -12.5 6.95 -0.38
    endloop
  endfacet
  facet normal -1 0 0
    outer loop
      vertex -12.5 6.95 -0.38
      vertex -12.5 -6.95 0.38
      vertex -12.5 6.95 0.38
    endloop
  endfacet
  facet normal 0 -1 0
    outer loop
      vertex -11.1 5.45 0.38
      vertex -11.1 5.45 -0.38
      vertex -11.0928 5.45 -0.38
    endloop
  endfacet
  facet normal 0 -1 0
    outer loop
      vertex -11.0928 5.45 0.38
      vertex -11.1 5.45 0.38
      vertex -11.0928 5.45 -0.38
    endloop
  endfacet
  facet normal 1 0 0
    outer loop
      vertex -11.1 5.45 -0.38
      vertex -11.1 5.45 0.38
      vertex -11.1 -6.25 0.38
    endloop
  endfacet
  facet normal 1 0 0
    outer loop
      vertex -11.1 -6.25 -0.38
      vertex -11.1 5.45 -0.38
      vertex -11.1 -6.25 0.38
    endloop
  endfacet
  facet normal 0.956942 0.290279 0
    outer loop
      vertex -11.0962 5.46098 0.38
      vertex -11.0928 5.45 0.38
      vertex -11.0928 5.45 -0.38
    endloop
  endfacet
  facet normal 0.956942 0.290279 0
    outer loop
      vertex -11.0962 5.46098 -0.38
      vertex -11.0962 5.46098 0.38
      vertex -11.0928 5.45 -0.38
    endloop
  endfacet
  facet normal 0.995185 0.0980187 0
    outer loop
      vertex -11.1 5.5 0.38
      vertex -11.0962 5.46098 0.38
      vertex -11.0962 5.46098 -0.38
    endloop
  endfacet
  facet normal 0.995185 0.0980187 0
    outer loop
      vertex -11.1 5.5 -0.38
      vertex -11.1 5.5 0.38
      vertex -11.0962 5.46098 -0.38
    endloop
  endfacet
  facet normal 0.995185 -0.0980187 0
    outer loop
      vertex -11.0962 5.53902 -0.38
      vertex -11.0962 5.53902 0.38
      vertex -11.1 5.5 0.38
    endloop
  endfacet
  facet normal 0.995185 -0.0980187 0
    outer loop
      vertex -11.1 5.5 -0.38
      vertex -11.0962 5.53902 -0.38
      vertex -11.1 5.5 0.38
    endloop
  endfacet
  facet normal 0.956942 -0.290279 0
    outer loop
      vertex -11.0848 5.57654 -0.38
      vertex -11.0848 5.57654 0.38
      vertex -11.0962 5.53902 0.38
    endloop
  endfacet
  facet normal 0.956942 -0.290279 0
    outer loop
      vertex -11.0962 5.53902 -0.38
      vertex -11.0848 5.57654 -0.38
      vertex -11.0962 5.53902 0.38
    endloop
  endfacet
  facet normal 0.881919 -0.471401 0
    outer loop
      vertex -11.0663 5.61111 -0.38
      vertex -11.0663 5.61111 0.38
      vertex -11.0848 5.57654 0.38
    endloop
  endfacet
  facet normal 0.881919 -0.471401 0
    outer loop
      vertex -11.0848 5.57654 -0.38
      vertex -11.0663 5.61111 -0.38
      vertex -11.0848 5.57654 0.38
    endloop
  endfacet
  facet normal 0.773002 -0.634404 0
    outer loop
      vertex -11.0414 5.64142 -0.38
      vertex -11.0414 5.64142 0.38
      vertex -11.0663 5.61111 0.38
    endloop
  endfacet
  facet normal 0.773002 -0.634404 0
    outer loop
      vertex -11.0663 5.61111 -0.38
      vertex -11.0414 5.64142 -0.38
      vertex -11.0663 5.61111 0.38
    endloop
  endfacet
  facet normal 0.634404 -0.773002 0
    outer loop
      vertex -11.0111 5.66629 -0.38
      vertex -11.0111 5.66629 0.38
      vertex -11.0414 5.64142 0.38
    endloop
  endfacet
  facet normal 0.634404 -0.773002 0
    outer loop
      vertex -11.0414 5.64142 -0.38
      vertex -11.0111 5.66629 -0.38
      vertex -11.0414 5.64142 0.38
    endloop
  endfacet
  facet normal 0.471401 -0.881919 0
    outer loop
      vertex -10.9765 5.68478 -0.38
      vertex -10.9765 5.68478 0.38
      vertex -11.0111 5.66629 0.38
    endloop
  endfacet
  facet normal 0.471401 -0.881919 0
    outer loop
      vertex -11.0111 5.66629 -0.38
      vertex -10.9765 5.68478 -0.38
      vertex -11.0111 5.66629 0.38
    endloop
  endfacet
  facet normal 0.290279 -0.956942 0
    outer loop
      vertex -10.939 5.69616 -0.38
      vertex -10.939 5.69616 0.38
      vertex -10.9765 5.68478 0.38
    endloop
  endfacet
  facet normal 0.290279 -0.956942 0
    outer loop
      vertex -10.9765 5.68478 -0.38
      vertex -10.939 5.69616 -0.38
      vertex -10.9765 5.68478 0.38
    endloop
  endfacet
  facet normal 0.0980187 -0.995185 0
    outer loop
      vertex -10.9 5.7 -0.38
      vertex -10.9 5.7 0.38
      vertex -10.939 5.69616 0.38
    endloop
  endfacet
  facet normal 0.0980187 -0.995185 0
    outer loop
      vertex -10.939 5.69616 -0.38
      vertex -10.9 5.7 -0.38
      vertex -10.939 5.69616 0.38
    endloop
  endfacet
  facet normal -0.0980187 -0.995185 -0
    outer loop
      vertex -10.861 5.69616 -0.38
      vertex -10.861 5.69616 0.38
      vertex -10.9 5.7 0.38
    endloop
  endfacet
  facet normal -0.0980187 -0.995185 -0
    outer loop
      vertex -10.9 5.7 -0.38
      vertex -10.861 5.69616 -0.38
      vertex -10.9 5.7 0.38
    endloop
  endfacet
  facet normal -0.290279 -0.956942 -0
    outer loop
      vertex -10.85 5.69283 -0.38
      vertex -10.85 5.69283 0.38
      vertex -10.861 5.69616 0.38
    endloop
  endfacet
  facet normal -0.290279 -0.956942 -0
    outer loop
      vertex -10.861 5.69616 -0.38
      vertex -10.85 5.69283 -0.38
      vertex -10.861 5.69616 0.38
    endloop
  endfacet
  facet normal 1 0 0
    outer loop
      vertex -10.85 5.69283 -0.38
      vertex -10.85 5.7 -0.38
      vertex -10.85 5.7 0.38
    endloop
  endfacet
  facet normal 1 0 -0
    outer loop
      vertex -10.85 5.69283 0.38
      vertex -10.85 5.69283 -0.38
      vertex -10.85 5.7 0.38
    endloop
  endfacet
  facet normal 0 -1 0
    outer loop
      vertex 1.3 5.7 -0.38
      vertex 1.3 5.7 0.38
      vertex -10.85 5.7 0.38
    endloop
  endfacet
  facet normal -0 -1 -0
    outer loop
      vertex -10.85 5.7 -0.38
      vertex 1.3 5.7 -0.38
      vertex -10.85 5.7 0.38
    endloop
  endfacet
  facet normal -0.707107 -0.707107 0
    outer loop
      vertex 1.3 5.7 0.38
      vertex 1.3 5.7 -0.38
      vertex 4.1 2.9 -0.38
    endloop
  endfacet
  facet normal -0.707107 -0.707107 0
    outer loop
      vertex 4.1 2.9 0.38
      vertex 1.3 5.7 0.38
      vertex 4.1 2.9 -0.38
    endloop
  endfacet
  facet normal -1 0 0
    outer loop
      vertex 4.1 2.9 0.38
      vertex 4.1 2.9 -0.38
      vertex 4.1 -6.25 0.38
    endloop
  endfacet
  facet normal -1 0 0
    outer loop
      vertex 4.1 -6.25 0.38
      vertex 4.1 2.9 -0.38
      vertex 4.1 -6.25 -0.38
    endloop
  endfacet
  facet normal 0 1 0
    outer loop
      vertex 4.09283 -6.25 -0.38
      vertex 4.09283 -6.25 0.38
      vertex 4.1 -6.25 -0.38
    endloop
  endfacet
  facet normal 0 1 0
    outer loop
      vertex 4.1 -6.25 -0.38
      vertex 4.09283 -6.25 0.38
      vertex 4.1 -6.25 0.38
    endloop
  endfacet
  facet normal -0.956942 -0.290279 0
    outer loop
      vertex 4.09616 -6.26098 0.38
      vertex 4.09283 -6.25 0.38
      vertex 4.09616 -6.26098 -0.38
    endloop
  endfacet
  facet normal -0.956942 -0.290279 0
    outer loop
      vertex 4.09616 -6.26098 -0.38
      vertex 4.09283 -6.25 0.38
      vertex 4.09283 -6.25 -0.38
    endloop
  endfacet
  facet normal -0.995185 -0.0980187 0
    outer loop
      vertex 4.1 -6.3 0.38
      vertex 4.09616 -6.26098 0.38
      vertex 4.1 -6.3 -0.38
    endloop
  endfacet
  facet normal -0.995185 -0.0980187 0
    outer loop
      vertex 4.1 -6.3 -0.38
      vertex 4.09616 -6.26098 0.38
      vertex 4.09616 -6.26098 -0.38
    endloop
  endfacet
  facet normal -0.995185 0.0980187 0
    outer loop
      vertex 4.1 -6.3 0.38
      vertex 4.1 -6.3 -0.38
      vertex 4.09616 -6.33902 0.38
    endloop
  endfacet
  facet normal -0.995185 0.0980187 0
    outer loop
      vertex 4.09616 -6.33902 0.38
      vertex 4.1 -6.3 -0.38
      vertex 4.09616 -6.33902 -0.38
    endloop
  endfacet
  facet normal -0.956942 0.290279 0
    outer loop
      vertex 4.09616 -6.33902 0.38
      vertex 4.09616 -6.33902 -0.38
      vertex 4.08478 -6.37654 0.38
    endloop
  endfacet
  facet normal -0.956942 0.290279 0
    outer loop
      vertex 4.08478 -6.37654 0.38
      vertex 4.09616 -6.33902 -0.38
      vertex 4.08478 -6.37654 -0.38
    endloop
  endfacet
  facet normal -0.881919 0.471401 0
    outer loop
      vertex 4.08478 -6.37654 0.38
      vertex 4.08478 -6.37654 -0.38
      vertex 4.06629 -6.41111 0.38
    endloop
  endfacet
  facet normal -0.881919 0.471401 0
    outer loop
      vertex 4.06629 -6.41111 0.38
      vertex 4.08478 -6.37654 -0.38
      vertex 4.06629 -6.41111 -0.38
    endloop
  endfacet
  facet normal -0.773002 0.634404 0
    outer loop
      vertex 4.06629 -6.41111 0.38
      vertex 4.06629 -6.41111 -0.38
      vertex 4.04142 -6.44142 0.38
    endloop
  endfacet
  facet normal -0.773002 0.634404 0
    outer loop
      vertex 4.04142 -6.44142 0.38
      vertex 4.06629 -6.41111 -0.38
      vertex 4.04142 -6.44142 -0.38
    endloop
  endfacet
  facet normal -0.634404 0.773002 0
    outer loop
      vertex 4.04142 -6.44142 0.38
      vertex 4.04142 -6.44142 -0.38
      vertex 4.01111 -6.46629 0.38
    endloop
  endfacet
  facet normal -0.634404 0.773002 0
    outer loop
      vertex 4.01111 -6.46629 0.38
      vertex 4.04142 -6.44142 -0.38
      vertex 4.01111 -6.46629 -0.38
    endloop
  endfacet
  facet normal -0.471401 0.881919 0
    outer loop
      vertex 4.01111 -6.46629 0.38
      vertex 4.01111 -6.46629 -0.38
      vertex 3.97654 -6.48478 0.38
    endloop
  endfacet
  facet normal -0.471401 0.881919 0
    outer loop
      vertex 3.97654 -6.48478 0.38
      vertex 4.01111 -6.46629 -0.38
      vertex 3.97654 -6.48478 -0.38
    endloop
  endfacet
  facet normal -0.290279 0.956942 0
    outer loop
      vertex 3.97654 -6.48478 0.38
      vertex 3.97654 -6.48478 -0.38
      vertex 3.93902 -6.49616 0.38
    endloop
  endfacet
  facet normal -0.290279 0.956942 0
    outer loop
      vertex 3.93902 -6.49616 0.38
      vertex 3.97654 -6.48478 -0.38
      vertex 3.93902 -6.49616 -0.38
    endloop
  endfacet
  facet normal -0.0980187 0.995185 0
    outer loop
      vertex 3.93902 -6.49616 0.38
      vertex 3.93902 -6.49616 -0.38
      vertex 3.9 -6.5 0.38
    endloop
  endfacet
  facet normal -0.0980187 0.995185 0
    outer loop
      vertex 3.9 -6.5 0.38
      vertex 3.93902 -6.49616 -0.38
      vertex 3.9 -6.5 -0.38
    endloop
  endfacet
  facet normal 0.0980187 0.995185 -0
    outer loop
      vertex 3.9 -6.5 0.38
      vertex 3.9 -6.5 -0.38
      vertex 3.86098 -6.49616 0.38
    endloop
  endfacet
  facet normal 0.0980187 0.995185 -0
    outer loop
      vertex 3.86098 -6.49616 0.38
      vertex 3.9 -6.5 -0.38
      vertex 3.86098 -6.49616 -0.38
    endloop
  endfacet
  facet normal 0.290279 0.956942 -0
    outer loop
      vertex 3.86098 -6.49616 0.38
      vertex 3.86098 -6.49616 -0.38
      vertex 3.85 -6.49283 0.38
    endloop
  endfacet
  facet normal 0.290279 0.956942 -0
    outer loop
      vertex 3.85 -6.49283 0.38
      vertex 3.86098 -6.49616 -0.38
      vertex 3.85 -6.49283 -0.38
    endloop
  endfacet
  facet normal -1 6.19002e-014 0
    outer loop
      vertex 3.85 -6.5 -0.38
      vertex 3.85 -6.5 0.38
      vertex 3.85 -6.49283 -0.38
    endloop
  endfacet
  facet normal -1 6.19002e-014 0
    outer loop
      vertex 3.85 -6.49283 -0.38
      vertex 3.85 -6.5 0.38
      vertex 3.85 -6.49283 0.38
    endloop
  endfacet
  facet normal 0 1 0
    outer loop
      vertex 3.85 -6.5 0.38
      vertex 3.85 -6.5 -0.38
      vertex -10.85 -6.5 0.38
    endloop
  endfacet
  facet normal 0 1 -0
    outer loop
      vertex -10.85 -6.5 0.38
      vertex 3.85 -6.5 -0.38
      vertex -10.85 -6.5 -0.38
    endloop
  endfacet
  facet normal 1 0 -0
    outer loop
      vertex -10.85 -6.5 0.38
      vertex -10.85 -6.5 -0.38
      vertex -10.85 -6.49283 -0.38
    endloop
  endfacet
  facet normal 1 0 0
    outer loop
      vertex -10.85 -6.49283 0.38
      vertex -10.85 -6.5 0.38
      vertex -10.85 -6.49283 -0.38
    endloop
  endfacet
  facet normal -0.290279 0.956942 0
    outer loop
      vertex -10.85 -6.49283 0.38
      vertex -10.85 -6.49283 -0.38
      vertex -10.861 -6.49616 0.38
    endloop
  endfacet
  facet normal -0.290279 0.956942 0
    outer loop
      vertex -10.861 -6.49616 0.38
      vertex -10.85 -6.49283 -0.38
      vertex -10.861 -6.49616 -0.38
    endloop
  endfacet
  facet normal -0.0980187 0.995185 0
    outer loop
      vertex -10.861 -6.49616 0.38
      vertex -10.861 -6.49616 -0.38
      vertex -10.9 -6.5 0.38
    endloop
  endfacet
  facet normal -0.0980187 0.995185 0
    outer loop
      vertex -10.9 -6.5 0.38
      vertex -10.861 -6.49616 -0.38
      vertex -10.9 -6.5 -0.38
    endloop
  endfacet
  facet normal 0.0980187 0.995185 -0
    outer loop
      vertex -10.9 -6.5 0.38
      vertex -10.9 -6.5 -0.38
      vertex -10.939 -6.49616 0.38
    endloop
  endfacet
  facet normal 0.0980187 0.995185 -0
    outer loop
      vertex -10.939 -6.49616 0.38
      vertex -10.9 -6.5 -0.38
      vertex -10.939 -6.49616 -0.38
    endloop
  endfacet
  facet normal 0.290279 0.956942 -0
    outer loop
      vertex -10.939 -6.49616 0.38
      vertex -10.939 -6.49616 -0.38
      vertex -10.9765 -6.48478 0.38
    endloop
  endfacet
  facet normal 0.290279 0.956942 -0
    outer loop
      vertex -10.9765 -6.48478 0.38
      vertex -10.939 -6.49616 -0.38
      vertex -10.9765 -6.48478 -0.38
    endloop
  endfacet
  facet normal 0.471401 0.881919 -0
    outer loop
      vertex -10.9765 -6.48478 0.38
      vertex -10.9765 -6.48478 -0.38
      vertex -11.0111 -6.46629 0.38
    endloop
  endfacet
  facet normal 0.471401 0.881919 -0
    outer loop
      vertex -11.0111 -6.46629 0.38
      vertex -10.9765 -6.48478 -0.38
      vertex -11.0111 -6.46629 -0.38
    endloop
  endfacet
  facet normal 0.634404 0.773002 -0
    outer loop
      vertex -11.0111 -6.46629 0.38
      vertex -11.0111 -6.46629 -0.38
      vertex -11.0414 -6.44142 0.38
    endloop
  endfacet
  facet normal 0.634404 0.773002 -0
    outer loop
      vertex -11.0414 -6.44142 0.38
      vertex -11.0111 -6.46629 -0.38
      vertex -11.0414 -6.44142 -0.38
    endloop
  endfacet
  facet normal 0.773002 0.634404 0
    outer loop
      vertex -11.0663 -6.41111 0.38
      vertex -11.0414 -6.44142 0.38
      vertex -11.0414 -6.44142 -0.38
    endloop
  endfacet
  facet normal 0.773002 0.634404 0
    outer loop
      vertex -11.0663 -6.41111 -0.38
      vertex -11.0663 -6.41111 0.38
      vertex -11.0414 -6.44142 -0.38
    endloop
  endfacet
  facet normal 0.881919 0.471401 0
    outer loop
      vertex -11.0848 -6.37654 0.38
      vertex -11.0663 -6.41111 0.38
      vertex -11.0663 -6.41111 -0.38
    endloop
  endfacet
  facet normal 0.881919 0.471401 0
    outer loop
      vertex -11.0848 -6.37654 -0.38
      vertex -11.0848 -6.37654 0.38
      vertex -11.0663 -6.41111 -0.38
    endloop
  endfacet
  facet normal 0.956942 0.290279 0
    outer loop
      vertex -11.0962 -6.33902 0.38
      vertex -11.0848 -6.37654 0.38
      vertex -11.0848 -6.37654 -0.38
    endloop
  endfacet
  facet normal 0.956942 0.290279 0
    outer loop
      vertex -11.0962 -6.33902 -0.38
      vertex -11.0962 -6.33902 0.38
      vertex -11.0848 -6.37654 -0.38
    endloop
  endfacet
  facet normal 0.995185 0.0980187 0
    outer loop
      vertex -11.1 -6.3 0.38
      vertex -11.0962 -6.33902 0.38
      vertex -11.0962 -6.33902 -0.38
    endloop
  endfacet
  facet normal 0.995185 0.0980187 0
    outer loop
      vertex -11.1 -6.3 -0.38
      vertex -11.1 -6.3 0.38
      vertex -11.0962 -6.33902 -0.38
    endloop
  endfacet
  facet normal 0.995185 -0.0980187 0
    outer loop
      vertex -11.0962 -6.26098 -0.38
      vertex -11.0962 -6.26098 0.38
      vertex -11.1 -6.3 0.38
    endloop
  endfacet
  facet normal 0.995185 -0.0980187 0
    outer loop
      vertex -11.1 -6.3 -0.38
      vertex -11.0962 -6.26098 -0.38
      vertex -11.1 -6.3 0.38
    endloop
  endfacet
  facet normal 0.956942 -0.290279 0
    outer loop
      vertex -11.0928 -6.25 -0.38
      vertex -11.0928 -6.25 0.38
      vertex -11.0962 -6.26098 0.38
    endloop
  endfacet
  facet normal 0.956942 -0.290279 0
    outer loop
      vertex -11.0962 -6.26098 -0.38
      vertex -11.0928 -6.25 -0.38
      vertex -11.0962 -6.26098 0.38
    endloop
  endfacet
  facet normal 0 1 0
    outer loop
      vertex -11.1 -6.25 -0.38
      vertex -11.1 -6.25 0.38
      vertex -11.0928 -6.25 -0.38
    endloop
  endfacet
  facet normal 0 1 0
    outer loop
      vertex -11.0928 -6.25 -0.38
      vertex -11.1 -6.25 0.38
      vertex -11.0928 -6.25 0.38
    endloop
  endfacet
endsolid OpenSCAD_Model
